# Blender 3.4.1
# www.blender.org
mtllib untitled.mtl
o Cube
v -3.411382 0.679890 -0.539875
v -3.411382 0.544858 -0.466975
v -3.411382 0.544858 -0.007674
v -3.411382 0.679890 0.065226
v 0.843803 0.544858 -0.466975
v 0.843803 0.679890 -0.539875
v 0.843803 0.679890 0.065226
v 0.843803 0.544858 -0.007674
v 3.411382 -0.456308 -0.500186
v 3.411382 -0.456308 0.025537
v 0.869819 0.657054 -0.539875
v 0.969907 0.495686 -0.500186
v 0.969907 0.495686 0.025537
v 0.869819 0.657054 0.065226
v 3.411382 1.000000 -0.510729
v 3.411382 1.000000 0.036080
v 3.227214 -0.262155 -0.539875
v 3.411382 -0.423808 -0.510729
v 3.411382 -0.423809 0.036080
v 3.227214 -0.262155 0.065226
v 0.843803 0.930962 0.065226
v 0.843803 1.000000 0.027954
v 0.843803 1.000000 -0.502604
v 0.843803 0.930962 -0.539875
v 3.227214 0.930962 -0.539875
v 3.411382 1.000000 -0.510729
v 3.411382 1.000000 0.036080
v 3.227214 0.930962 0.065226
v -3.411382 1.000000 -0.502452
v -3.411382 0.930682 -0.539875
v -3.411382 0.930682 0.065226
v -3.411382 1.000000 0.027803
v 0.843803 1.000000 0.027954
v 0.843803 0.930962 0.065226
v 0.843803 0.930962 -0.539875
v 0.843803 1.000000 -0.502604
v -4.595819 0.984447 -0.481241
v -4.595819 0.936656 -0.476533
v -4.595819 0.890700 -0.462593
v -4.595819 0.848348 -0.439955
v -4.595819 0.811225 -0.409490
v -4.595819 0.780760 -0.372367
v -4.595819 0.758122 -0.330015
v -4.595819 0.744181 -0.284059
v -4.595819 0.739474 -0.236267
v -4.595819 0.744181 -0.188476
v -4.595819 0.758122 -0.142520
v -4.595819 0.780760 -0.100168
v -4.595819 0.811225 -0.063045
v -4.595819 0.848348 -0.032580
v -4.595819 0.890700 -0.009942
v -4.595819 0.936656 0.003999
v -4.595819 0.984447 0.008706
v -4.595819 1.032239 0.003999
v -4.595819 1.078195 -0.009942
v -4.595819 1.120547 -0.032580
v -4.595819 1.157670 -0.063045
v -4.595819 1.188135 -0.100168
v -4.595819 1.210773 -0.142520
v -4.595819 1.224714 -0.188476
v -4.595819 1.229421 -0.236267
v -4.595819 1.224714 -0.284059
v -4.595819 1.210773 -0.330015
v -4.595819 1.188135 -0.372367
v -4.595819 1.157670 -0.409490
v -4.595819 1.120547 -0.439955
v -4.595819 1.078195 -0.462593
v -4.595819 1.032239 -0.476533
v 0.517818 0.984447 -0.449080
v 0.183770 0.984447 -0.481241
v 0.517818 0.942930 -0.444991
v 0.183770 0.936655 -0.476533
v 0.517818 0.903007 -0.432881
v 0.183770 0.890700 -0.462593
v 0.517818 0.866215 -0.413215
v 0.183770 0.848347 -0.439955
v 0.517818 0.833966 -0.386749
v 0.183770 0.811225 -0.409490
v 0.517818 0.807500 -0.354500
v 0.183770 0.780760 -0.372367
v 0.517818 0.787834 -0.317707
v 0.183770 0.758122 -0.330015
v 0.517818 0.775724 -0.277785
v 0.183770 0.744181 -0.284059
v 0.517818 0.771635 -0.236267
v 0.183770 0.739474 -0.236267
v 0.517818 0.775724 -0.194750
v 0.183770 0.744181 -0.188476
v 0.517818 0.787834 -0.154828
v 0.183770 0.758122 -0.142520
v 0.517818 0.807500 -0.118035
v 0.183770 0.780760 -0.100168
v 0.517818 0.833966 -0.085786
v 0.183770 0.811225 -0.063045
v 0.517818 0.866215 -0.059320
v 0.183770 0.848347 -0.032580
v 0.517818 0.903007 -0.039654
v 0.183770 0.890700 -0.009942
v 0.517818 0.942930 -0.027544
v 0.183770 0.936655 0.003999
v 0.517818 0.984447 -0.023455
v 0.183770 0.984447 0.008706
v 0.517818 1.025965 -0.027544
v 0.183770 1.032239 0.003999
v 0.517818 1.065887 -0.039654
v 0.183770 1.078194 -0.009942
v 0.517818 1.102680 -0.059320
v 0.183770 1.120547 -0.032580
v 0.517818 1.134928 -0.085786
v 0.183770 1.157669 -0.063045
v 0.517818 1.161394 -0.118035
v 0.183770 1.188135 -0.100168
v 0.517818 1.181060 -0.154828
v 0.183770 1.210773 -0.142520
v 0.517818 1.193171 -0.194750
v 0.183770 1.224713 -0.188476
v 0.517818 1.197260 -0.236267
v 0.183770 1.229420 -0.236267
v 0.517818 1.193171 -0.277785
v 0.183770 1.224713 -0.284059
v 0.517818 1.181060 -0.317707
v 0.183770 1.210773 -0.330015
v 0.517818 1.161394 -0.354500
v 0.183770 1.188135 -0.372367
v 0.517818 1.134928 -0.386749
v 0.183770 1.157669 -0.409490
v 0.517818 1.102680 -0.413215
v 0.183770 1.120547 -0.439955
v 0.517818 1.065887 -0.432881
v 0.183770 1.078194 -0.462593
v 0.517818 1.025965 -0.444991
v 0.183770 1.032239 -0.476533
v -1.172634 -0.234860 -0.111932
v -1.172634 0.773024 -0.111932
v -1.172634 -0.234860 -0.360603
v -1.172634 0.773024 -0.360603
v -0.454986 -0.234860 -0.111932
v -0.454986 0.773024 -0.111932
v -0.454986 -0.234860 -0.360603
v -0.454986 0.773024 -0.360603
vn -0.0000 -0.0000 1.0000
vn -0.1195 -0.3064 -0.9444
vn -0.3849 -0.4385 -0.8122
vn -0.3633 -0.9317 -0.0000
vn -0.0000 1.0000 -0.0000
vn -0.0000 -0.0000 -1.0000
vn 0.1563 -0.0000 -0.9877
vn -0.3849 -0.4385 0.8122
vn -0.0000 -0.4751 -0.8800
vn -0.0000 -0.4751 0.8800
vn -0.0000 -1.0000 -0.0000
vn -0.1195 -0.3064 0.9444
vn 0.1563 -0.0000 0.9877
vn 1.0000 -0.0000 -0.0000
vn -0.0015 0.4351 -0.9004
vn -0.0015 0.4351 0.9004
vn -0.0000 0.4751 0.8800
vn -0.0000 0.4751 -0.8800
vn -1.0000 -0.0000 -0.0000
vn -0.0000 0.0980 -0.9952
vn -0.0000 -0.4714 -0.8819
vn -0.0000 -0.6344 -0.7730
vn -0.0000 -0.7730 -0.6344
vn -0.0000 -0.8819 -0.4714
vn -0.0000 -0.9569 -0.2903
vn -0.0000 -0.9952 -0.0980
vn -0.0000 -0.9952 0.0980
vn -0.0000 -0.9569 0.2903
vn -0.0000 -0.8819 0.4714
vn -0.0000 -0.7730 0.6344
vn -0.0000 -0.6344 0.7730
vn -0.0000 -0.4714 0.8819
vn -0.0000 -0.2903 0.9569
vn -0.0000 -0.0980 0.9952
vn -0.0000 0.0980 0.9952
vn -0.0000 0.2903 0.9569
vn -0.0000 0.4714 0.8819
vn -0.0000 0.6344 0.7730
vn -0.0000 0.7730 0.6344
vn -0.0000 0.8819 0.4714
vn -0.0000 0.9569 0.2903
vn -0.0000 0.9952 0.0980
vn -0.0000 0.9952 -0.0980
vn -0.0000 0.9569 -0.2903
vn -0.0000 0.8819 -0.4714
vn -0.0000 0.7730 -0.6344
vn -0.0000 0.6344 -0.7730
vn -0.0000 0.4714 -0.8819
vn -0.0000 0.2903 -0.9569
vn -0.0000 -0.0980 -0.9952
vn -0.0000 -0.2903 -0.9569
vn 0.0954 -0.0976 -0.9906
vn 0.0954 -0.2890 -0.9526
vn 0.0954 -0.4692 -0.8779
vn 0.0954 -0.6315 -0.7695
vn 0.0954 -0.7695 -0.6315
vn 0.0954 -0.8779 -0.4692
vn 0.0954 -0.9526 -0.2890
vn 0.0954 -0.9906 -0.0976
vn 0.0954 -0.9906 0.0976
vn 0.0954 -0.9526 0.2890
vn 0.0954 -0.8779 0.4692
vn 0.0954 -0.7695 0.6315
vn 0.0954 -0.6315 0.7695
vn 0.0954 -0.4692 0.8779
vn 0.0954 -0.2890 0.9526
vn 0.0954 -0.0976 0.9906
vn 0.0954 0.0976 0.9906
vn 0.0954 0.2890 0.9526
vn 0.0954 0.4692 0.8779
vn 0.0954 0.6315 0.7695
vn 0.0954 0.7695 0.6315
vn 0.0954 0.8779 0.4692
vn 0.0954 0.9526 0.2890
vn 0.0954 0.9906 0.0976
vn 0.0954 0.9906 -0.0976
vn 0.0954 0.9526 -0.2890
vn 0.0954 0.8779 -0.4692
vn 0.0954 0.7695 -0.6315
vn 0.0954 0.6315 -0.7695
vn 0.0954 0.4692 -0.8779
vn 0.0954 0.2890 -0.9526
vn 0.0954 0.0976 -0.9906
vt 0.394121 0.053961
vt 0.220637 0.632487
vt 0.064961 0.753305
vt 0.200235 0.632487
vt 0.525989 0.184976
vt 0.050518 0.738749
vt 0.598872 0.184976
vt 0.050518 0.647043
vt 0.161490 0.053944
vt 0.619275 0.184976
vt 0.064961 0.632487
vt 0.342945 0.491715
vt 0.200235 0.766945
vt 0.525989 0.050518
vt 0.328390 0.506157
vt 0.396097 0.186907
vt 0.220637 0.766945
vt 0.159593 0.186891
vt 0.449208 0.506157
vt 0.619275 0.050518
vt 0.434652 0.491715
vt 0.598873 0.050518
vt 0.851620 0.949482
vt 0.336314 0.374524
vt 0.163412 0.374468
vt 0.441283 0.374524
vt 0.876249 0.050518
vt 0.058443 0.374468
vt 0.862748 0.837281
vt 0.328390 0.503612
vt 0.394441 0.188013
vt 0.851620 0.850330
vt 0.336314 0.485959
vt 0.441283 0.485959
vt 0.876249 0.149670
vt 0.161250 0.187996
vt 0.449208 0.503612
vt 0.887378 0.162719
vt 0.050518 0.273431
vt 0.165517 0.531450
vt 0.130784 0.263535
vt 0.056338 0.531450
vt 0.862748 0.933018
vt 0.328390 0.273488
vt 0.171337 0.395396
vt 0.854576 0.947095
vt 0.165517 0.377971
vt 0.879206 0.052905
vt 0.056338 0.377971
vt 0.227353 0.273431
vt 0.887378 0.066982
vt 0.050518 0.395396
vt 0.141250 0.183673
vt 0.587079 0.844081
vt 0.130736 0.183462
vt 0.625000 0.844081
vt 0.052856 0.193064
vt 0.625000 0.405919
vt 0.424953 0.183461
vt 0.587079 0.405919
vt 0.414438 0.183678
vt 0.171337 0.524008
vt 0.415545 0.258143
vt 0.050518 0.273431
vt 0.165517 0.531450
vt 0.424953 0.263534
vt 0.056338 0.531450
vt 0.130784 0.263535
vt 0.050518 0.524008
vt 0.140188 0.258138
vt 0.054775 0.060115
vt 0.422998 0.050518
vt 0.099198 0.745833
vt 0.412441 0.050736
vt 0.091784 0.753305
vt 0.143168 0.050730
vt 0.091784 0.632487
vt 0.132611 0.050518
vt 0.099198 0.639959
vt 0.625000 0.844081
vt 0.130736 0.183462
vt 0.587079 0.844081
vt 0.141250 0.183673
vt 0.587079 0.405919
vt 0.414438 0.183678
vt 0.052856 0.193064
vt 0.625000 0.405919
vt 0.424953 0.183461
vt 0.604077 0.536749
vt 0.383290 0.607193
vt 0.880362 0.638554
vt 0.379416 0.607193
vt 0.885417 0.639762
vt 0.374198 0.607193
vt 0.890178 0.642801
vt 0.367834 0.607193
vt 0.894464 0.647553
vt 0.360571 0.607193
vt 0.898108 0.653837
vt 0.352687 0.607193
vt 0.900972 0.661410
vt 0.344486 0.607193
vt 0.902944 0.669982
vt 0.336281 0.607193
vt 0.903949 0.679224
vt 0.328389 0.607193
vt 0.720312 0.201547
vt 0.903949 0.688779
vt 0.728204 0.201547
vt 0.902944 0.698282
vt 0.736408 0.201547
vt 0.900972 0.707367
vt 0.744610 0.201547
vt 0.898108 0.715684
vt 0.752494 0.201547
vt 0.894464 0.722914
vt 0.759757 0.201547
vt 0.890178 0.728779
vt 0.766120 0.201547
vt 0.885417 0.733054
vt 0.771339 0.201547
vt 0.880362 0.735575
vt 0.775213 0.201547
vt 0.705114 0.536749
vt 0.875208 0.736244
vt 0.709303 0.537216
vt 0.870153 0.735036
vt 0.714711 0.537476
vt 0.865391 0.731998
vt 0.721129 0.537517
vt 0.861106 0.727245
vt 0.728312 0.537339
vt 0.857461 0.720962
vt 0.735982 0.536949
vt 0.854598 0.713388
vt 0.743845 0.536360
vt 0.852626 0.704816
vt 0.751599 0.535596
vt 0.851620 0.695574
vt 0.758946 0.534687
vt 0.550245 0.534687
vt 0.851620 0.686019
vt 0.557591 0.535596
vt 0.852626 0.676516
vt 0.565346 0.536360
vt 0.854598 0.667432
vt 0.573209 0.536949
vt 0.857462 0.659114
vt 0.580879 0.537339
vt 0.861106 0.651884
vt 0.588061 0.537517
vt 0.865391 0.646019
vt 0.594479 0.537476
vt 0.870153 0.641744
vt 0.599887 0.537216
vt 0.875208 0.639223
vt 0.580975 0.679963
vt 0.599365 0.376316
vt 0.885146 0.374524
vt 0.383290 0.758222
vt 0.580975 0.711470
vt 0.604077 0.387403
vt 0.621650 0.675957
vt 0.880634 0.375102
vt 0.379416 0.758222
vt 0.627797 0.706859
vt 0.660762 0.664092
vt 0.876208 0.377288
vt 0.374198 0.758222
vt 0.672819 0.693202
vt 0.696807 0.644826
vt 0.872039 0.380999
vt 0.367834 0.758222
vt 0.714312 0.671023
vt 0.728402 0.618897
vt 0.868287 0.386091
vt 0.360571 0.758222
vt 0.750681 0.641176
vt 0.754330 0.587303
vt 0.865097 0.392370
vt 0.352687 0.758222
vt 0.780528 0.604807
vt 0.773597 0.551257
vt 0.862590 0.399593
vt 0.344486 0.758222
vt 0.802706 0.563314
vt 0.785461 0.512145
vt 0.860863 0.407483
vt 0.336281 0.758222
vt 0.816364 0.518292
vt 0.789468 0.471470
vt 0.859982 0.415738
vt 0.328389 0.758222
vt 0.720312 0.050518
vt 0.820975 0.471470
vt 0.785461 0.430796
vt 0.859982 0.424039
vt 0.728204 0.050518
vt 0.816364 0.424649
vt 0.773597 0.391684
vt 0.860863 0.432068
vt 0.736408 0.050518
vt 0.802706 0.379626
vt 0.754330 0.355638
vt 0.862590 0.439517
vt 0.744610 0.050518
vt 0.780528 0.338134
vt 0.728402 0.324044
vt 0.865097 0.446098
vt 0.752494 0.050518
vt 0.750681 0.301765
vt 0.696807 0.298115
vt 0.868287 0.451560
vt 0.759757 0.050518
vt 0.714312 0.271918
vt 0.660762 0.278849
vt 0.872039 0.455691
vt 0.766120 0.050518
vt 0.672819 0.249739
vt 0.621650 0.266984
vt 0.876208 0.458335
vt 0.771339 0.050518
vt 0.627797 0.236082
vt 0.580975 0.262978
vt 0.709826 0.376316
vt 0.880634 0.459388
vt 0.775213 0.050518
vt 0.580975 0.231470
vt 0.705114 0.387403
vt 0.713465 0.376722
vt 0.885146 0.458810
vt 0.709303 0.387870
vt 0.718163 0.376947
vt 0.889572 0.456624
vt 0.714711 0.388130
vt 0.723739 0.376983
vt 0.893741 0.452913
vt 0.721129 0.388171
vt 0.729978 0.376829
vt 0.897493 0.447821
vt 0.728312 0.387993
vt 0.736641 0.376489
vt 0.900684 0.441542
vt 0.735982 0.387603
vt 0.743472 0.375978
vt 0.903191 0.434319
vt 0.743845 0.387014
vt 0.750208 0.375314
vt 0.904918 0.426429
vt 0.751599 0.386250
vt 0.756590 0.374524
vt 0.552600 0.374524
vt 0.905798 0.418174
vt 0.758946 0.385341
vt 0.550245 0.385341
vt 0.558982 0.375314
vt 0.905798 0.409873
vt 0.557591 0.386250
vt 0.565718 0.375978
vt 0.904918 0.401843
vt 0.565346 0.387014
vt 0.572549 0.376489
vt 0.903191 0.394395
vt 0.573209 0.387603
vt 0.579212 0.376829
vt 0.900684 0.387814
vt 0.580879 0.387993
vt 0.585451 0.376983
vt 0.897493 0.382352
vt 0.588061 0.388171
vt 0.591027 0.376947
vt 0.893741 0.378220
vt 0.594479 0.388130
vt 0.595725 0.376722
vt 0.889572 0.375577
vt 0.599887 0.387870
vt 0.750584 0.638554
vt 0.723072 0.922145
vt 0.073195 0.854342
vt 0.750584 0.746352
vt 0.723072 0.847389
vt 0.875000 0.750000
vt 0.700933 0.638554
vt 0.572384 0.851795
vt 0.073195 0.893802
vt 0.700933 0.746352
vt 0.572384 0.926552
vt 0.875000 0.500000
vt 0.550245 0.638554
vt 0.700932 0.925705
vt 0.050518 0.854342
vt 0.550245 0.747199
vt 0.700932 0.850948
vt 0.625000 0.750000
vt 0.550245 0.848235
vt 0.599896 0.638554
vt 0.050518 0.893802
vt 0.550245 0.922992
vt 0.599896 0.747199
vt 0.625000 0.500000
s 0
usemtl Material
f 20/50/1 28/70/1 21/53/1 7/18/1 14/36/1
f 9/23/2 12/32/2 11/29/2 17/43/2 18/46/2
f 7/18/1 21/53/1 34/83/1 31/76/1 4/9/1
f 5/12/3 6/15/3 11/30/3 12/33/3
f 5/12/4 12/33/4 9/24/4 10/26/4 13/34/4 8/21/4
f 15/39/5 26/64/5 23/57/5 22/55/5 27/68/5 16/41/5
f 1/1/6 30/74/6 35/85/6 24/61/6 6/16/6
f 11/31/6 6/16/6 24/61/6 25/63/6 17/44/6
f 17/45/7 25/62/7 26/65/7 15/40/7 18/47/7
f 7/19/8 8/21/8 13/34/8 14/37/8
f 5/13/9 2/4/9 1/2/9 6/17/9
f 3/7/10 8/22/10 7/20/10 4/10/10
f 2/5/11 5/14/11 8/22/11 3/7/11
f 19/48/12 20/51/12 14/38/12 13/35/12 10/27/12
f 23/57/5 36/86/5 29/71/5 32/78/5 33/81/5 22/55/5
f 27/67/13 28/69/13 20/52/13 19/49/13 16/42/13
f 9/25/14 18/47/14 15/40/14 16/42/14 19/49/14 10/28/14
f 23/58/5 24/60/5 35/84/5 36/87/5
f 25/63/15 24/61/15 23/59/15 26/66/15
f 21/53/16 28/70/16 27/68/16 22/55/16
f 21/54/5 22/56/5 33/80/5 34/82/5
f 33/81/17 32/78/17 31/76/17 34/83/17
f 35/85/18 30/74/18 29/72/18 36/88/18
f 3/8/19 4/11/19 31/77/19 32/79/19 29/73/19 30/75/19 1/3/19 2/6/19
f 68/155/20 132/276/20 70/162/20 37/89/20
f 39/94/21 74/169/21 76/173/21 40/96/21
f 40/96/22 76/173/22 78/177/22 41/98/22
f 41/98/23 78/177/23 80/181/23 42/100/23
f 42/100/24 80/181/24 82/185/24 43/102/24
f 43/102/25 82/185/25 84/189/25 44/104/25
f 44/104/26 84/189/26 86/193/26 45/106/26
f 45/107/27 86/194/27 88/198/27 46/109/27
f 46/109/28 88/198/28 90/202/28 47/111/28
f 47/111/29 90/202/29 92/206/29 48/113/29
f 48/113/30 92/206/30 94/210/30 49/115/30
f 49/115/31 94/210/31 96/214/31 50/117/31
f 50/117/32 96/214/32 98/218/32 51/119/32
f 51/119/33 98/218/33 100/222/33 52/121/33
f 52/121/34 100/222/34 102/227/34 53/123/34
f 53/124/35 102/229/35 104/232/35 54/126/35
f 54/126/36 104/232/36 106/235/36 55/128/36
f 55/128/37 106/235/37 108/238/37 56/130/37
f 56/130/38 108/238/38 110/241/38 57/132/38
f 57/132/39 110/241/39 112/244/39 58/134/39
f 58/134/40 112/244/40 114/247/40 59/136/40
f 59/136/41 114/247/41 116/250/41 60/138/41
f 60/138/42 116/250/42 118/254/42 61/140/42
f 61/141/43 118/255/43 120/258/43 62/143/43
f 62/143/44 120/258/44 122/261/44 63/145/44
f 63/145/45 122/261/45 124/264/45 64/147/45
f 64/147/46 124/264/46 126/267/46 65/149/46
f 65/149/47 126/267/47 128/270/47 66/151/47
f 66/151/48 128/270/48 130/273/48 67/153/48
f 67/153/49 130/273/49 132/276/49 68/155/49
f 37/90/50 70/160/50 72/165/50 38/92/50
f 38/92/51 72/165/51 74/169/51 39/94/51
f 37/91/19 38/93/19 39/95/19 40/97/19 41/99/19 42/101/19 43/103/19 44/105/19 45/108/19 46/110/19 47/112/19 48/114/19 49/116/19 50/118/19 51/120/19 52/122/19 53/125/19 54/127/19 55/129/19 56/131/19 57/133/19 58/135/19 59/137/19 60/139/19 61/142/19 62/144/19 63/146/19 64/148/19 65/150/19 66/152/19 67/154/19 68/156/19
f 72/166/52 70/161/52 69/157/52 71/163/52
f 74/170/53 72/166/53 71/163/53 73/167/53
f 76/174/54 74/170/54 73/167/54 75/171/54
f 78/178/55 76/174/55 75/171/55 77/175/55
f 80/182/56 78/178/56 77/175/56 79/179/56
f 82/186/57 80/182/57 79/179/57 81/183/57
f 84/190/58 82/186/58 81/183/58 83/187/58
f 86/195/59 84/190/59 83/187/59 85/191/59
f 88/199/60 86/195/60 85/191/60 87/196/60
f 90/203/61 88/199/61 87/196/61 89/200/61
f 92/207/62 90/203/62 89/200/62 91/204/62
f 94/211/63 92/207/63 91/204/63 93/208/63
f 96/215/64 94/211/64 93/208/64 95/212/64
f 98/219/65 96/215/65 95/212/65 97/216/65
f 100/223/66 98/219/66 97/216/66 99/220/66
f 102/228/67 100/223/67 99/220/67 101/224/67
f 104/232/68 102/229/68 101/225/68 103/230/68
f 106/235/69 104/232/69 103/230/69 105/233/69
f 108/238/70 106/235/70 105/233/70 107/236/70
f 110/241/71 108/238/71 107/236/71 109/239/71
f 112/244/72 110/241/72 109/239/72 111/242/72
f 114/247/73 112/244/73 111/242/73 113/245/73
f 116/250/74 114/247/74 113/245/74 115/248/74
f 118/254/75 116/250/75 115/248/75 117/251/75
f 120/258/76 118/255/76 117/252/76 119/256/76
f 122/261/77 120/258/77 119/256/77 121/259/77
f 124/264/78 122/261/78 121/259/78 123/262/78
f 126/267/79 124/264/79 123/262/79 125/265/79
f 128/270/80 126/267/80 125/265/80 127/268/80
f 130/273/81 128/270/81 127/268/81 129/271/81
f 132/276/82 130/273/82 129/271/82 131/274/82
f 70/162/83 132/276/83 131/274/83 69/158/83
f 71/164/14 69/159/14 131/275/14 129/272/14 127/269/14 125/266/14 123/263/14 121/260/14 119/257/14 117/253/14 115/249/14 113/246/14 111/243/14 109/240/14 107/237/14 105/234/14 103/231/14 101/226/14 99/221/14 97/217/14 95/213/14 93/209/14 91/205/14 89/201/14 87/197/14 85/192/14 83/188/14 81/184/14 79/180/14 77/176/14 75/172/14 73/168/14
f 133/277/19 134/280/19 136/286/19 135/283/19
f 135/284/6 136/287/6 140/298/6 139/295/6
f 139/296/14 140/299/14 138/292/14 137/289/14
f 137/290/1 138/293/1 134/281/1 133/278/1
f 135/285/11 139/297/11 137/291/11 133/279/11
f 140/300/5 136/288/5 134/282/5 138/294/5
